<svg id="Layer_1" data-name="Layer 1" xmlns="http://www.w3.org/2000/svg" xmlns:xlink="http://www.w3.org/1999/xlink" viewBox="0 0 90 56"><defs><style>.cls-1,.cls-16,.cls-17,.cls-3,.cls-4{fill:#efefef;}.cls-2{fill:url(#linear-gradient);}.cls-3{opacity:0.76;}.cls-4{opacity:0.56;}.cls-5{fill:url(#linear-gradient-2);}.cls-6{fill:#a41e21;}.cls-7{fill:url(#linear-gradient-3);}.cls-8{fill:url(#linear-gradient-4);}.cls-9{fill:url(#linear-gradient-5);}.cls-10{fill:url(#linear-gradient-6);}.cls-11{fill:url(#linear-gradient-7);}.cls-12{fill:url(#linear-gradient-8);}.cls-13{fill:url(#linear-gradient-9);}.cls-14{fill:url(#linear-gradient-10);}.cls-15{fill:url(#linear-gradient-11);}.cls-16{opacity:0.59;}.cls-17{opacity:0.67;}</style><linearGradient id="linear-gradient" x1="43.85" y1="-0.93" x2="44.48" y2="14.82" gradientUnits="userSpaceOnUse"><stop offset="0" stop-color="#e87724"/><stop offset="1" stop-color="#fbd8b6"/></linearGradient><linearGradient id="linear-gradient-2" x1="37.21" y1="7.61" x2="41.46" y2="24.24" gradientUnits="userSpaceOnUse"><stop offset="0" stop-color="#e65925"/><stop offset="1" stop-color="#f5813a"/></linearGradient><linearGradient id="linear-gradient-3" x1="45.4" y1="49.61" x2="44.4" y2="27.61" gradientUnits="userSpaceOnUse"><stop offset="0" stop-color="#411620"/><stop offset="1" stop-color="#a41e21"/></linearGradient><linearGradient id="linear-gradient-4" x1="42.34" y1="29.44" x2="45.2" y2="50.47" gradientUnits="userSpaceOnUse"><stop offset="0" stop-color="#411620"/><stop offset="1" stop-color="#2c1526"/></linearGradient><linearGradient id="linear-gradient-5" x1="4.11" y1="24.1" x2="32.64" y2="24.1" gradientTransform="matrix(0.78, -0.03, 0.02, 0.72, 0.37, 12.53)" xlink:href="#linear-gradient-4"/><linearGradient id="linear-gradient-6" x1="27" y1="39" x2="33.88" y2="39" xlink:href="#linear-gradient-4"/><linearGradient id="linear-gradient-7" x1="54.38" y1="44.5" x2="59.63" y2="44.5" xlink:href="#linear-gradient-4"/><linearGradient id="linear-gradient-8" x1="79.38" y1="41" x2="86.25" y2="41" xlink:href="#linear-gradient-4"/><linearGradient id="linear-gradient-9" x1="62" y1="34.36" x2="61.91" y2="32.43" xlink:href="#linear-gradient-3"/><linearGradient id="linear-gradient-10" x1="67.4" y1="24.25" x2="67.31" y2="22.32" gradientTransform="matrix(-0.9, 0.44, 0.44, 0.9, 70.04, -16.35)" xlink:href="#linear-gradient-3"/><linearGradient id="linear-gradient-11" x1="42.8" y1="32.44" x2="43.15" y2="35.05" xlink:href="#linear-gradient-4"/></defs><ellipse class="cls-1" cx="24.19" cy="11.31" rx="8.94" ry="9.06"/><rect class="cls-2" width="90" height="56"/><ellipse class="cls-3" cx="24" cy="11.81" rx="8.38" ry="8.44"/><polygon class="cls-4" points="36.63 19 61.38 18.81 60.17 14.78 55.53 14.78 55.53 12.29 53.81 12.48 53.13 11.14 51.58 8.26 45.91 7.88 45.91 11.33 42.47 12.67 41.61 14.4 38.17 15.93 36.63 19"/><path class="cls-5" d="M0,29.88s7.13,1.25,8-1.13l.88-2.37L8.63,11.75l3.5-2.37A2.34,2.34,0,0,0,11.88,7L14.5,5.88l1.38.37L16,11.63a6.13,6.13,0,0,1,2.25,2.62l.38,10.38.61,2.47s5.89,1.78,10,.15c0,0,7.88-2.12,9.38-.62l5,.12s.12-6.25.62-7.5c0,0,1-2.62,2.75-1.25,0,0,1.38-4.25.75-5.62l6.38,2.75.25,5.37s.62,2.13,1.87,1c0,0,1.13,2.13.75,2.75,0,0,.63,2.5,2,1.38,0,0,9.5-2.25,10.25-1.63l9.75.5.88-12.12s.5-1.25,1.25-1.25L81.5,9.5s1.38-3.12,2.25-3c0,0,.38,5.38,3.75,3.88l-.12,13S85.75,26,90,25V56H0Z"/><path class="cls-6" d="M49.58,36.33A10.5,10.5,0,0,0,49.42,33L49,31.86l-.7-1L46.64,30l-.81-.55s-.56-.86-.24-.6a4.64,4.64,0,0,1,.59.62l0-.91.3,1L47,30l.44.23-.25-1,.52,1.11.8.25A5,5,0,0,1,49.61,28a12.06,12.06,0,0,0-.79,2.65l.33.79a13.62,13.62,0,0,1,1.58-1.71L50,28.83s.77.49.86.71l1-.55-1.44-.73,1.56.61a7.46,7.46,0,0,1,2.09-.76,22.46,22.46,0,0,0-2.42,1.3l1.71-.09-2,.29-.43.48L52.8,30l-2.14.38-.75,1.21A9,9,0,0,1,52.4,31l1-.94-.5,1,.75.06.89-1.08L54,31.17a5.67,5.67,0,0,1,1.6.28,31.46,31.46,0,0,0-3.22-.06l-2,.54,0,.16a33.42,33.42,0,0,1,.48,4.09Z"/><path class="cls-7" d="M8.25,38.88s15.75-6.5,26.13-5l10.37,1.5s10.5,1.5,16.88-1.13,5-2,5-2a71,71,0,0,1,6.62-3.62c2.13-.88,8.63-3.75,14.25-3.13l2.5.25V56H0V38.25Z"/><path class="cls-8" d="M0,38.25s19.13-1.5,33.25,4S47.5,47,47.5,47a37.32,37.32,0,0,0,13.13-1.87S82.13,40,90,42V56H0Z"/><path class="cls-9" d="M13.12,43.18s.45-7.32-.46-11l-.9-3.67-1.58-3.38-3.8-2.76L4.56,20.54s-1.27-2.84-.56-2a15,15,0,0,1,1.34,2v-3L6,21l1,1.14,1,.77-.6-3.22,1.2,3.66,1.79.84s.57-6.16,2.46-8.38c0,0-2,7.73-1.67,8.62L12,27.06s2.58-4.77,3.43-5.52l-1.66-2.92A10.68,10.68,0,0,1,15.72,21l2.19-1.79L14.7,16.78l3.49,2s2.57-2.07,4.61-2.41c0,0-5.16,3.6-5.34,4.15l3.81-.22-4.47.87-.93,1.57,4.2-.32-4.76,1.15-1.63,3.93s3.37-1.73,5.52-1.62l2.15-3.05-1.07,3.19,1.67.22,1.94-3.5-1.05,3.65s3.14.34,3.55,1c0,0-7.16-.66-7.15-.3L14.7,28.78l.12.54S16.3,41.63,16,42.72Z"/><polygon class="cls-10" points="28.38 42 27.13 39.5 28.75 41.13 28 38.63 29 40.63 28.88 37.13 29.75 41 30.63 37.38 30.13 41.5 32.88 37.63 30.75 42.13 29.25 35.38 29.63 42.25 27 36.25 29.13 42.5 33.88 38.63 31.13 42.63 28.38 42"/><polygon class="cls-11" points="56.75 46.75 54.38 44.75 57.38 46.38 55 44 58 46.63 54.63 41.75 58.5 46.5 57.13 40.63 59.5 46.5 56.5 42 58.25 47.5 59.63 41.13 59.63 47.38 54.88 43.25 58.25 48.38 56.75 46.75"/><path class="cls-6" d="M50,31.57a10.43,10.43,0,0,0-6.07-.13L46,31.35l.25.37.38-.37,3.15.89Z"/><polygon class="cls-12" points="80.75 42.75 79.88 40 81.25 42.38 81 40.38 81.88 42.88 81.25 39.25 83 43 84.5 38.38 84.38 43.25 85.13 39.38 85.13 42.13 82.25 39.5 83.73 42.97 85.25 43.5 86.13 39.13 86.25 43.63 79.38 41.25 80.75 42.75"/><path class="cls-13" d="M61.88,34.76l-1.16-.24a.61.61,0,0,1,1-.06c.53.6.11-.67-.84-1.09s.9-.54.95.42.26.73.26.73-.26-2.9.27-1.93a1.79,1.79,0,0,1-.06,1.81s.85-2.66,1-1.81a3.51,3.51,0,0,1-.69,1.93l-1.16.61Z"/><path class="cls-14" d="M20.73,35.63l.94-.73s-.73-.38-.93.39-.39-.55.27-1.35-1-.09-.66.8.09.77.09.77-1.06-2.72-1.1-1.62a1.82,1.82,0,0,0,.85,1.61s-1.94-2-1.65-1.21S20,35.72,20,35.72l1.31,0Z"/><path class="cls-15" d="M41.83,35.73a1.58,1.58,0,0,0-1.7-1.15s1.54-.49,1.62.33l.62,1.2s.38-1.64-1.7-2.13c0,0,2,0,2.32,1.59s0,.65,0,.65-.31-4.65.15-3.12a6.29,6.29,0,0,1,.15,2.9s1-3.17,1.47-1.86-1,1.54-1,1.54L46,34.2l-2,1.91Z"/><path class="cls-6" d="M86.07,26.66l.53-6.39-1.85-4S79,15.88,76.38,15c0,0,4.82,3.11,6.46,2.84l.22,1.36-2.21.48s-2-1.42-2.8-.95c0,0,2.29.8,2,1.31l-1.54.13,1.54.57,3.27.87-.11,4.57Z"/><path class="cls-16" d="M71.48,9.55l.84-1.13h1.54l1-1.14,3.08-.14L79,2.89l6.58-.14a8.21,8.21,0,0,1,.14,1.7V9.13l3.37-.29L89,11.25,72.32,11H69.38Z"/><polygon class="cls-17" points="3.71 13.66 16.13 13.19 15.27 11.49 11.99 11.64 11.42 9.94 10.99 6.99 9.13 5.13 5.99 5.13 5.71 8.54 4 9.31 3.42 11.18 1.57 11.8 0 14.13 3.71 13.66"/><polygon class="cls-17" points="10.71 11.53 23.13 11.07 22.27 9.36 18.99 9.52 18.42 7.81 17.99 4.86 16.13 3 12.99 3 12.71 6.41 11 7.19 10.43 9.05 8.57 9.67 7 12 10.71 11.53"/><polygon points="28.34 14.68 30.6 15.69 32.31 14 30.58 15.23 28.34 14.68"/><polygon points="27.75 10.9 30.51 11.6 32.25 9.77 30.22 10.62 27.75 10.9"/><polygon points="32.34 12.13 34.51 12.98 35.93 10.54 34.32 12.26 32.34 12.13"/></svg>