<svg xmlns="http://www.w3.org/2000/svg" xmlns:xlink="http://www.w3.org/1999/xlink" viewBox="0 0 90 56"><defs><style>.cls-1{fill:url(#linear-gradient);}.cls-2,.cls-3,.cls-4,.cls-5{fill:#efefef;}.cls-2{opacity:0.56;}.cls-3{opacity:0.67;}.cls-4{opacity:0.59;}.cls-5{opacity:0.76;}.cls-6{fill:url(#linear-gradient-2);}.cls-7{fill:#a41e21;}.cls-8{fill:url(#linear-gradient-3);}.cls-9{fill:url(#linear-gradient-4);}.cls-10{fill:url(#linear-gradient-5);}.cls-11{fill:url(#linear-gradient-6);}.cls-12{fill:url(#linear-gradient-7);}.cls-13{fill:url(#linear-gradient-8);}.cls-14{fill:url(#linear-gradient-9);}.cls-15{fill:url(#linear-gradient-10);}.cls-16{fill:url(#linear-gradient-11);}</style><linearGradient id="linear-gradient" x1="45" y1="-0.75" x2="45" y2="26.04" gradientUnits="userSpaceOnUse"><stop offset="0" stop-color="#e87724"/><stop offset="1" stop-color="#fbd8b6"/></linearGradient><linearGradient id="linear-gradient-2" x1="45.07" y1="5.75" x2="44.96" y2="51.6" gradientUnits="userSpaceOnUse"><stop offset="0" stop-color="#e65925"/><stop offset="1" stop-color="#f5813a"/></linearGradient><linearGradient id="linear-gradient-3" x1="45.09" y1="47.88" x2="44.99" y2="23.88" gradientUnits="userSpaceOnUse"><stop offset="0" stop-color="#411620"/><stop offset="1" stop-color="#a41e21"/></linearGradient><linearGradient id="linear-gradient-4" x1="62" y1="34.36" x2="61.91" y2="32.43" xlink:href="#linear-gradient-3"/><linearGradient id="linear-gradient-5" x1="66.51" y1="22.46" x2="66.42" y2="20.53" gradientTransform="matrix(-0.9, 0.44, 0.44, 0.9, 70.04, -16.35)" xlink:href="#linear-gradient-3"/><linearGradient id="linear-gradient-6" x1="42.8" y1="32.44" x2="43.15" y2="35.05" gradientUnits="userSpaceOnUse"><stop offset="0" stop-color="#411620"/><stop offset="1" stop-color="#2c1526"/></linearGradient><linearGradient id="linear-gradient-7" x1="27" y1="39" x2="33.88" y2="39" xlink:href="#linear-gradient-6"/><linearGradient id="linear-gradient-8" x1="54.38" y1="44.5" x2="59.63" y2="44.5" xlink:href="#linear-gradient-6"/><linearGradient id="linear-gradient-9" x1="4.11" y1="24.1" x2="32.64" y2="24.1" gradientTransform="matrix(0.78, -0.03, 0.02, 0.72, 0.37, 12.53)" xlink:href="#linear-gradient-6"/><linearGradient id="linear-gradient-10" x1="45.01" y1="36.33" x2="45.12" y2="55.83" xlink:href="#linear-gradient-6"/><linearGradient id="linear-gradient-11" x1="79.38" y1="38.5" x2="86.25" y2="38.5" xlink:href="#linear-gradient-6"/></defs><g id="BG"><rect class="cls-1" width="90" height="56"/></g><g id="Exep_cloud" data-name="Exep cloud"><polygon class="cls-2" points="36.63 19 61.38 18.81 60.17 14.78 55.53 14.78 55.53 12.29 53.81 12.48 53.13 11.14 51.58 8.26 45.91 7.88 45.91 11.33 42.47 12.67 41.61 14.4 38.17 15.93 36.63 19"/></g><g id="bg_details" data-name="bg details"><polygon class="cls-3" points="10.71 11.53 23.13 11.07 22.27 9.36 18.99 9.52 18.42 7.81 17.99 4.86 16.13 3 12.99 3 12.71 6.41 11 7.19 10.43 9.05 8.57 9.67 7 12 10.71 11.53"/><polygon class="cls-3" points="3.71 13.66 16.13 13.19 15.27 11.49 11.99 11.64 11.42 9.94 10.99 6.99 9.13 5.13 5.99 5.13 5.71 8.54 4 9.31 3.42 11.18 1.57 11.8 0 14.13 3.71 13.66"/><path class="cls-4" d="M71.48,9.55l.84-1.13h1.54l1-1.14,3.08-.14L79,2.89l6.58-.14a8.21,8.21,0,0,1,.14,1.7V9.13l3.37-.29L89,11.25,72.32,11H69.38Z"/><ellipse class="cls-5" cx="24" cy="11.81" rx="8.38" ry="8.44"/><polygon points="32.34 12.13 34.51 12.98 35.93 10.54 34.32 12.26 32.34 12.13"/><polygon points="27.75 10.9 30.51 11.6 32.25 9.77 30.22 10.62 27.75 10.9"/><polygon points="28.34 14.68 30.6 15.69 32.31 14 30.58 15.23 28.34 14.68"/></g><g id="canyons"><path class="cls-6" d="M0,25.1s5.65,3,7.37,2.38S8.86,26,8.86,26L8.61,11.35,12.11,9a2.29,2.29,0,0,0-.25-2.37l2.63-1.13,1.37.38L16,11.22a6.18,6.18,0,0,1,2.25,2.63l.37,10.37.62,2.48s5.88,1.77,10,.15c0,0,7.87-2.13,9.37-.63l5,.13s.13-6.25.63-7.5c0,0,1-2.63,2.75-1.25,0,0,1.37-4.25.75-5.63l6.37,2.75.25,5.38s.63,2.12,1.88,1c0,0,1.12,2.12.75,2.75,0,0,.62,2.5,2,1.37,0,0,9.5-2.25,10.25-1.62l9.75.5L79.86,12s.5-1.25,1.25-1.25l.38-1.62s1.37-3.13,2.25-3c0,0,.37,5.37,3.75,3.87l-.13,13S85.72,26.13,90,25.13L90,55.6H0Z"/></g><g id="Valley1"><path class="cls-7" d="M86.07,26.66l.53-6.39-1.85-4S79,15.88,76.38,15c0,0,4.82,3.11,6.46,2.84l.22,1.36-2.21.48s-2-1.42-2.8-.95c0,0,2.29.8,2,1.31l-1.54.13,1.54.57,3.27.87-.11,4.57Z"/><path class="cls-7" d="M49.44,36.34a10.63,10.63,0,0,0-.16-3.42l-.39-1.13-.71-1-1.74-.84-.83-.56s-.57-.88-.24-.61a5.12,5.12,0,0,1,.6.62l0-.92.3,1,.46.35.46.24-.26-1,.54,1.13.81.25a5.07,5.07,0,0,1,1.18-2.61,11.79,11.79,0,0,0-.81,2.68l.34.81a14.08,14.08,0,0,1,1.61-1.74l-.75-.9s.78.51.87.73l1-.57-1.46-.73,1.59.62A7.34,7.34,0,0,1,54,28a23.2,23.2,0,0,0-2.48,1.31l1.75-.09-2.06.3-.43.49,1.93-.12-2.19.38-.77,1.23A9,9,0,0,1,52.32,31l1-1-.51,1,.77.05L54.5,30,54,31.09a5.79,5.79,0,0,1,1.63.28,32.69,32.69,0,0,0-3.28-.06l-2.1.55,0,.16a36.55,36.55,0,0,1,.5,4.16Z"/><path class="cls-8" d="M7.45,30.89a10,10,0,0,0,5.89,1.85c4.71,0,19.84-6.08,26.85-2.49,9.34,4.79,9.47,5.08,9.47,5.08a20.4,20.4,0,0,0,12.06-1.08c6.38-2.62,5-2,5-2a70.21,70.21,0,0,1,6.63-3.62c2.13-.88,8.64-3.75,14.27-3.13l2.49.13,0,30.37H0V25.63Z"/><path class="cls-7" d="M50,31.57a10.43,10.43,0,0,0-6.07-.13L46,31.35l.25.37.38-.37,3.15.89Z"/><path class="cls-9" d="M61.88,34.76l-1.16-.24a.61.61,0,0,1,1-.06c.53.6.11-.67-.84-1.09s.9-.54.95.42.26.73.26.73-.26-2.9.27-1.93a1.79,1.79,0,0,1-.06,1.81s.85-2.66,1-1.81a3.51,3.51,0,0,1-.69,1.93l-1.16.61Z"/><path class="cls-10" d="M20.73,33.63l.94-.73s-.73-.38-.93.39-.39-.55.27-1.35-1-.09-.66.8.09.77.09.77-1.06-2.72-1.1-1.62a1.82,1.82,0,0,0,.85,1.61s-1.94-2-1.65-1.21S20,33.72,20,33.72l1.31,0Z"/><path class="cls-11" d="M41.83,35.73a1.58,1.58,0,0,0-1.7-1.15s1.54-.49,1.62.33l.62,1.2s.38-1.64-1.7-2.13c0,0,2,0,2.32,1.59s0,.65,0,.65-.31-4.65.15-3.12a6.29,6.29,0,0,1,.15,2.9s1-3.17,1.47-1.86-1,1.54-1,1.54L46,34.2l-2,1.91Z"/></g><g id="Valley2"><polygon class="cls-12" points="28.38 42 27.13 39.5 28.75 41.13 28 38.63 29 40.63 28.88 37.13 29.75 41 30.63 37.38 30.13 41.5 32.88 37.63 30.75 42.13 29.25 35.38 29.63 42.25 27 36.25 29.13 42.5 33.88 38.63 31.13 42.63 28.38 42"/><polygon class="cls-13" points="56.75 46.75 54.38 44.75 57.38 46.38 55 44 58 46.63 54.63 41.75 58.5 46.5 57.13 40.63 59.5 46.5 56.5 42 58.25 47.5 59.63 41.13 59.63 47.38 54.88 43.25 58.25 48.38 56.75 46.75"/><path class="cls-14" d="M13.12,43.18s.45-7.32-.46-11l-.9-3.67-1.58-3.38-3.8-2.76L4.56,20.54s-1.27-2.84-.56-2a15,15,0,0,1,1.34,2v-3L6,21l1,1.14,1,.77-.6-3.22,1.2,3.66,1.79.84s.57-6.16,2.46-8.38c0,0-2,7.73-1.67,8.62L12,27.06s2.58-4.77,3.43-5.52l-1.66-2.92A10.68,10.68,0,0,1,15.72,21l2.19-1.79L14.7,16.78l3.49,2s2.57-2.07,4.61-2.41c0,0-5.16,3.6-5.34,4.15l3.81-.22-4.47.87-.93,1.57,4.2-.32-4.76,1.15-1.63,3.93s3.37-1.73,5.52-1.62l2.15-3.05-1.07,3.19,1.67.22,1.94-3.5-1.05,3.65s3.14.34,3.55,1c0,0-7.16-.66-7.15-.3L14.7,28.78l.12.54S16.3,41.63,16,42.72Z"/><path class="cls-15" d="M0,38.06s19.14-1.31,33.26,4.19S47.5,47,47.5,47a37.32,37.32,0,0,0,13.13-1.87S81.9,39.5,90.14,38.06L90,56H0Z"/><polygon class="cls-16" points="80.75 40.75 79.88 38 81.25 40.38 81 38.38 81.88 40.88 81.25 37.25 83 40 84.5 35.38 84.38 41.25 85.13 37.38 85.13 40.13 82.25 37.5 83.73 40.97 85.25 41.5 86.13 37.13 86.25 41.63 79.38 39.25 80.75 40.75"/></g></svg>