<svg xmlns="http://www.w3.org/2000/svg" xmlns:xlink="http://www.w3.org/1999/xlink" viewBox="0 0 1500 720"><defs><style>.cls-1{fill:url(#linear-gradient);}.cls-2{fill:url(#radial-gradient);}.cls-3{fill:url(#radial-gradient-2);}.cls-4{fill:url(#radial-gradient-3);}.cls-5{fill:url(#radial-gradient-4);}.cls-6{fill:url(#radial-gradient-5);}.cls-7{fill:#1d1d1b;}.cls-8{fill:url(#linear-gradient-2);}.cls-9{fill:url(#linear-gradient-3);}.cls-10{fill:url(#linear-gradient-4);}.cls-11{fill:url(#linear-gradient-5);}.cls-12{fill:url(#linear-gradient-6);}.cls-13{fill:url(#linear-gradient-7);}.cls-14{fill:#411620;}</style><linearGradient id="linear-gradient" x1="756.03" y1="-74.33" x2="750.86" y2="297.49" gradientUnits="userSpaceOnUse"><stop offset="0" stop-color="#e87724"/><stop offset="1" stop-color="#fbd8b6"/></linearGradient><radialGradient id="radial-gradient" cx="341.14" cy="160.14" r="120.6" gradientUnits="userSpaceOnUse"><stop offset="0" stop-color="#fff" stop-opacity="0.6"/><stop offset="1" stop-color="#fff" stop-opacity="0.8"/></radialGradient><radialGradient id="radial-gradient-2" cx="116.36" cy="122.43" r="89.86" gradientUnits="userSpaceOnUse"><stop offset="0" stop-color="#fff" stop-opacity="0.3"/><stop offset="1" stop-color="#fff" stop-opacity="0.3"/></radialGradient><radialGradient id="radial-gradient-3" cx="205.71" cy="109.57" r="88.09" xlink:href="#radial-gradient-2"/><radialGradient id="radial-gradient-4" cx="701.14" cy="170.43" r="131.71" xlink:href="#radial-gradient-2"/><radialGradient id="radial-gradient-5" cx="1130.57" cy="91.57" r="103.22" xlink:href="#radial-gradient-2"/><linearGradient id="linear-gradient-2" x1="754.69" y1="68.76" x2="747.76" y2="728.92" gradientUnits="userSpaceOnUse"><stop offset="0" stop-color="#e65925"/><stop offset="1" stop-color="#f5813a"/></linearGradient><linearGradient id="linear-gradient-3" x1="1196.1" y1="395.25" x2="1134.39" y2="248.39" gradientUnits="userSpaceOnUse"><stop offset="0" stop-color="#411620"/><stop offset="1" stop-color="#a41e21"/></linearGradient><linearGradient id="linear-gradient-4" x1="522.48" y1="436.72" x2="504.05" y2="399" xlink:href="#linear-gradient-3"/><linearGradient id="linear-gradient-5" x1="685.86" y1="471.54" x2="671.39" y2="357.01" xlink:href="#linear-gradient-3"/><linearGradient id="linear-gradient-6" x1="807.38" y1="725.05" x2="810.57" y2="418.44" xlink:href="#linear-gradient-3"/><linearGradient id="linear-gradient-7" x1="794.12" y1="511.58" x2="788.98" y2="473.01" xlink:href="#linear-gradient-3"/></defs><g id="Bg"><rect class="cls-1" x="-0.01" width="1500.01" height="720"/></g><g id="Details"><ellipse class="cls-2" cx="341.14" cy="160.14" rx="126.86" ry="114"/><path class="cls-3" d="M3,179.86S24,149,51.43,147.29s10.28-29.15,10.28-29.15H77.14L89.14,65H132l25.71,25.71,12,31.72,36,16.28v21.43l24,19.72Z"/><polygon class="cls-4" points="186.86 39.29 186.86 78.71 144 95.86 132 130.14 116.36 137 102.86 160.14 102.86 179.86 308.57 173 308.57 143.86 270.86 147.29 264 122.43 222.86 99.29 228.12 53.21 186.86 39.29"/><polygon class="cls-5" points="529.71 243.29 546.86 202.14 576 195.29 600 179.86 600 160.14 658.29 145.57 658.29 97.57 735.43 109.57 766.29 152.43 797.14 149 797.14 186.71 862.29 191.86 872.57 243.29 529.71 243.29"/><polygon class="cls-6" points="1266.86 143.86 1266.86 109.57 1220.57 109.57 1218.86 39.29 1128 39.29 1119.43 91.57 1071.43 97.57 1035.43 109.57 994.29 143.86 1266.86 143.86"/><path class="cls-7" d="M408,143.86l25.71,8.57,27.17-30S416.57,145.57,408,143.86Z"/><polygon class="cls-7" points="468 160.14 493.71 170.43 516 137.43 492 160.14 468 160.14"/><polygon class="cls-7" points="460.88 185 434.44 202.14 401.14 185 434.44 193.57 460.88 185"/></g><g id="Canyons"><path class="cls-8" d="M1485.71,311.57V269c-6.42,11.57-25.71,0-25.71,0V202.14l-64.29-31.71c19.29,41.57-24.42,56.14-24.42,56.14-42.43-39.86-33.43,86.86-33.43,86.86H1283l-3,.95v-.95c-61,12-36.14-19.43-36.14-19.43V126c-45.72,18.86-53.15-49.14-53.15-49.14-26.85,6.85-36,58.85-36,58.85-12.57-.57-19.42,19.43-19.42,19.43l-12.58,152.57-136-5.71c-2.28-2.86-25.71-.57-25.71-.57C915.29,299.14,835.86,322,835.86,322c-10.86,14.86-25.15-16-25.15-16,2.86-10.29-10.28-37.71-10.28-37.71-18.86,16.57-27.43-12-27.43-12l-3.43-68.58-90.86-36.57c10.86,9.72-10.85,73-10.85,73C613.57,190.93,621,336.86,621,336.86l-72-1.72c-4.57-14.28-75.43-2.85-75.43-2.85C366.71,367.14,302.71,345.43,281,343.14s-21.14-147.43-21.14-147.43c5.14-35.42-31.43-52-31.43-52L225.57,74l-18.28-5.71L168.43,83.14c13.14,16,3.43,30.86,3.43,30.86l-49.72,28.57,4.57,190.29C82.57,375,56.86,339,56.86,339,49.43,345.29,0,311.57,0,311.57V713H25L3,720H1500V311.57C1487.29,317,1485.71,311.57,1485.71,311.57Z"/></g><g id="Valley1"><path class="cls-9" d="M1175.44,391.71V342.57s-65.15-17.14-65.15-20,20.58-2.86,20.58-2.86-24.58-14.85-29.15-16.57,32.57.57,36.86,13.15l34.57-5.72L1170.29,294s-57.14-13.14-90.28-36.57c0,0,102.28,16,117.71,14.28l26.86,52.86-6.29,67.14Z"/><path class="cls-10" d="M505.88,434.18l12.85-5.9a2.07,2.07,0,0,0,1-1c1.84-3.85,10.95-23.3,8.25-26.77-1.74-2.23-4.19,2.56-6,7a2,2,0,0,1-3.86-.17c-1.4-4.82-3.44-10.39-5.19-9.39-2,1.13-2.28,8.88-2.26,14a2,2,0,0,1-3.28,1.62c-3.24-2.51-8.31-5.71-13.09-5.57A2,2,0,0,0,493,411.6l7.57,6.79a2,2,0,0,1-.33,3.28l-4.85,2.84a2,2,0,0,0,.56,3.75c2.89.7,6,2.07,7.13,4.77A2.07,2.07,0,0,0,505.88,434.18Z"/><path class="cls-11" d="M752.16,407.78c-11.35-3-42.61-4-43.88-4h-.08a199.54,199.54,0,0,0-25.45,3,.85.85,0,0,1-.92-1.26A52.46,52.46,0,0,1,692,393.62l0,0,13.57-2.77a.86.86,0,0,0-.17-1.7h-5.71a.86.86,0,0,1-.53-1.53c2.1-1.63,4.26-3.21,6.43-4.74a.9.9,0,0,1,.5-.16h4.71a.86.86,0,0,0,.14-1.7h0a.85.85,0,0,1-.34-1.55c8.61-5.69,16.61-10.14,20.34-12.15a.86.86,0,0,0-.45-1.61c-5.62.16-16.42,4.65-26.15,9.37a.86.86,0,0,1-.61.06l-13-3.64a.85.85,0,0,0-.64,1.57l7.31,4a.86.86,0,0,1,0,1.51c-3.78,2-7.08,3.78-9.4,5.12a.85.85,0,0,1-.87,0l-5.89-3.54a.86.86,0,0,0-1,1.35l3.75,3.63a.85.85,0,0,1,0,1.26c-4,3.41-15.67,15.27-19.45,19.13A.86.86,0,0,1,663,405l-1-6.72a.66.66,0,0,0-.09-.27c-2.33-4.26,3.94-25.22,6-31.77a.86.86,0,0,0-1.38-.91c-5.62,5-14.08,25.93-15.8,30.29a.86.86,0,0,1-1.11.48l-9.64-3.86a.87.87,0,0,1-.42-.36l-3.92-6.68a.85.85,0,0,0-1.56.66l.8,3a.85.85,0,0,1-1.25,1l-9.1-5.25a.81.81,0,0,1-.36-.41l-4-9.45a.85.85,0,0,0-1.64.3l-.22,5.6a.85.85,0,0,1-1.38.64l-6.46-5a.86.86,0,0,0-1.32,1c5.49,12.21,36.83,22.26,40.47,23.39a.87.87,0,0,1,.51.43l2,3.95a.86.86,0,0,1-1,1.21c-11.59-2.79-33.05-.33-47.32,1.88a.86.86,0,0,0,.17,1.7l16.38-.9a.85.85,0,0,1,.74.37l2.17,3.1a.86.86,0,0,0,1.28.14l3.55-3.23a.86.86,0,0,1,.94-.14c6.32,3.14,28.64,7.19,32.06,7.8a.85.85,0,0,1,.63.5c9.54,21.29,6.5,43.44,5.6,48.6a.86.86,0,0,0,.93,1l18.15-1.93a.85.85,0,0,0,.76-.94l-4.59-43.4a.82.82,0,0,1,.15-.59c5.75-7.5,55-10.12,69.27-10.73A.85.85,0,0,0,752.16,407.78Z"/><path class="cls-12" d="M390.29,434.36s220.55-31.44,272.18,18.26c0,0,158.55,63.5,368.16-18.26,0,0,92-46.7,187.66-44.65,103.44,2.23,213.49,55.12,281.71,109.43V720H114.86S262.39,472.23,390.29,434.36Z"/><path class="cls-13" d="M780.47,508.29s-13.14-14.86-24-15.43l-10.86-.57s28-8.58,40.57,12c0,0-2.28-16-20.28-18.29,0,0,23.71,3.13,25.43,11.57s-.57-29.86,4-27.57,6.28,33.71,6.28,33.71,13.72-28,18.29-18.28c0,0,1.14,10.56,0,12.14s16-11.1,17.14-8.48-23.43,22.05-23.43,22.05Z"/></g><g id="Valley2"><polygon class="cls-14" points="828.54 547.14 843.5 572.51 843.86 567.94 828.54 547.14"/><polygon class="cls-14" points="847.87 517.14 843.86 567.94 850.28 576.65 847.87 517.14"/><polygon class="cls-14" points="444.01 522.72 445.19 521.77 445.42 518.5 443.99 520.89 444.01 522.72"/><polygon class="cls-14" points="446.42 504.18 443.59 484.43 443.89 511.49 446.1 508.81 446.42 504.18"/><path class="cls-14" d="M897.07,572.18q-12.84,3.45-25,6.42l1.79-19.46-12.22,22-2.4.57L862,553.52l-8.33,27.73,1.08,1.46-1.63.37.55-1.83-3.38-4.6.28,7-.43.1-6.63-11.24-1,12.92-4.11.88-39.56-69.17,34.61,70.2-1.32.27-31.43-39.72s18.2,29.66,25.75,40.86l-.46.1c-12.78-12.27-54.28-47.71-54.28-47.71l49.25,48.69-2.26.43-42.9-28.12,33.83,29.79-2.89.52-17.56-10.06,13.09,10.83-3.16.54-19.6-11.37,16.87,11.82C697.64,610.35,651.44,600,651.44,600c-57.68-29.41-126.22-50.77-196.83-66.26l-.16-2.12,28.08-39.74-29.29,23.47-.66-8.8,12.2-20.39L452.2,501.4l-2.88-38.69-2.9,41.47.52,3.61-.84,1-.68,9.7,2.46-4.12.67,4.69-3.36,2.69-.68,9.77-.4-.08-.1-8.75-2.14,1.72,2.12-3.54-.1-9.41-14.05,17-1.36-.27,8.81-49L424.7,510.14l-5.16-47.43-4,50.86L409.81,481v40l-21.76-52,16.59,54.75-2.2-.4-14.39-14.92L395,522c-58.61-10.2-117-16.83-170.11-21.1-8.16-46-10.63-126.51-10.63-126.51,12-21.43,160.61-26.57,160.61-26.57l-47.24-9.43L341.39,293l-29.21,47.14L289,335l13.74-39.43-30.06,37.72c-10.23-1.37-53.17,10.48-70.44,15.43a3,3,0,0,1-3.44-4.45A465,465,0,0,1,226.21,303l58.49-14.24-50.79,4.2h0c6.77-8.58,13.47-16.39,20-23.48l48-6.43h-42c35.85-37.39,64.3-52.29,64.3-52.29-8.59,0-70.43,30-70.43,30l-42.94-23.14,42.94,30L223.72,269c-5.15-12-30.06-30.86-26.62-26.57s22.33,35.14,22.33,35.14l-48.1,68.57L162.74,317c-6-6.86,22.33-113.14,22.33-113.14C167,218.43,148.14,311,148.14,311l-26.57-14.57-15.51-41.14L112.93,293,84.58,264.71l-8.58-36v33.43L53.67,237.29c22.33,48,91.89,86.57,91.89,86.57l5.16,10.28,18,33.43c16.21,30,20,114.05,20.63,130.8C79.85,491.31,0,494,0,494V720H1500V491.57S1065.41,527,897.07,572.18Z"/></g></svg>